<svg width="32" height="32" viewBox="0 0 32 32" fill="none" xmlns="http://www.w3.org/2000/svg">
<g id="Group 2147205518">
<circle id="Ellipse 6" cx="16" cy="16" r="15.5" transform="rotate(-180 16 16)" stroke="white" stroke-opacity="0.1"/>
<path id="Vector" d="M19.2335 24.0482C17.0587 24.0482 14.6121 22.7162 11.9752 20.0792C9.22948 17.3607 7.89741 14.8325 8.00615 12.5762C8.08771 11.0538 8.8217 9.66738 10.1538 8.5528C10.6431 8.14502 11.2683 7.95473 11.9208 8.0091C12.5732 8.06347 13.1441 8.38969 13.5519 8.87902L14.6665 10.2383C15.4276 11.1897 15.4005 12.5218 14.5849 13.4461L13.6878 14.4519C13.7965 14.8053 14.1771 15.6481 15.2645 16.7355C16.3791 17.85 17.2218 18.2035 17.5481 18.3122L18.5539 17.4151C19.451 16.5995 20.8103 16.5724 21.7617 17.3335L23.121 18.4481C23.6375 18.8559 23.9365 19.4268 23.9909 20.0792C24.0453 20.7317 23.855 21.3569 23.4472 21.8462C22.3326 23.1783 20.9462 23.9395 19.4238 23.9938C19.3966 24.0482 19.3151 24.0482 19.2335 24.0482Z" fill="white"/>
</g>
</svg>
