<svg width="32" height="32" viewBox="0 0 32 32" fill="none" xmlns="http://www.w3.org/2000/svg">
<g id="Group 2147205517">
<g id="Group 2147205516">
<circle id="Ellipse 6" cx="16" cy="16" r="15.5" transform="rotate(-180 16 16)" stroke="white" stroke-opacity="0.1"/>
</g>
<path id="Vector" fill-rule="evenodd" clip-rule="evenodd" d="M8.59103 11L15.7137 16.3733C15.8814 16.4997 16.1188 16.4997 16.2863 16.3733L23.409 11H8.59103ZM23.979 11.3076C23.9925 11.3501 24 11.3954 24 11.4424V20.4379C24 20.6826 23.8021 20.8803 23.5576 20.8803H8.44238C8.19772 20.8803 8 20.6824 8 20.4379V11.4424C8 11.3954 8.00729 11.3501 8.02098 11.3076L15.359 16.8432C15.7383 17.1293 16.2619 17.1295 16.6412 16.8432L23.979 11.3076Z" fill="white"/>
</g>
</svg>
