<svg width="32" height="32" viewBox="0 0 32 32" fill="none" xmlns="http://www.w3.org/2000/svg">
<g id="Group 2147205521">
<path id="Vector" fill-rule="evenodd" clip-rule="evenodd" d="M12.5569 13.2904C11.1153 13.3697 9.62878 13.51 8.3376 13.6938C7.88747 15.191 7.88747 16.8088 8.3376 18.306C9.62878 18.4898 11.1153 18.6301 12.5569 18.7094C12.318 16.9578 12.318 15.0421 12.5569 13.2904ZM23.4461 18.9307C22.1808 19.1012 20.7378 19.2305 19.3517 19.3041C19.0783 20.8978 18.5081 22.8027 17.4902 23.8612C20.2002 23.3506 22.4468 21.4674 23.4461 18.9307ZM18.749 19.333C18.4637 20.9236 17.5604 23.9998 16.0001 23.9998C14.4396 23.9998 13.5365 20.9238 13.2511 19.333C15.0476 19.4104 16.9526 19.4104 18.749 19.333ZM12.6485 19.3041C11.2622 19.2305 9.81954 19.1012 8.55413 18.9307C9.55323 21.4672 11.8 23.3506 14.5101 23.8612C13.492 22.8029 12.9217 20.8976 12.6485 19.3041ZM8.55413 13.0691C9.81954 12.8986 11.2624 12.7694 12.6485 12.6958C12.9217 11.1022 13.492 9.19696 14.51 8.13867C11.8 8.64924 9.55323 10.5326 8.55413 13.0691ZM13.2511 12.6668C13.5363 11.0762 14.4396 8 15.9999 8C17.5604 8 18.4637 11.0761 18.7489 12.6668C16.9526 12.5895 15.0476 12.5895 13.2511 12.6668ZM19.3517 12.6958C20.7378 12.7694 22.1808 12.8986 23.4461 13.0691C22.4468 10.5324 20.2002 8.64924 17.49 8.13867C18.5081 9.19714 19.0783 11.102 19.3517 12.6958ZM20.1065 18.669C21.3767 18.5844 22.5716 18.4612 23.6624 18.306C24.1125 16.8083 24.1125 15.1914 23.6624 13.6938C22.3712 13.51 20.8847 13.3697 19.4431 13.2904C19.6822 15.0421 19.6822 16.9578 19.4431 18.7094C19.6665 18.6971 19.8877 18.6836 20.1065 18.669ZM18.8443 13.2607C16.9949 13.1781 15.0051 13.1781 13.1557 13.2607C12.9047 15.0227 12.9047 16.9773 13.1557 18.7393C15.0051 18.8219 16.9949 18.8219 18.8443 18.7393C19.0953 16.9771 19.0953 15.0227 18.8443 13.2607Z" fill="white"/>
<g id="Group 2147205520">
<circle id="Ellipse 6" cx="16" cy="16" r="15.5" transform="rotate(-180 16 16)" stroke="white" stroke-opacity="0.1"/>
</g>
</g>
</svg>
