<svg width="32" height="32" viewBox="0 0 32 32" fill="none" xmlns="http://www.w3.org/2000/svg">
<g id="Group 2147205519">
<g id="Group">
<path id="Vector" d="M16 8C11.5852 8 8 11.5852 8 16C8 17.6593 8.5037 19.2889 9.48148 20.6519C9.54074 20.7407 9.54074 20.8593 9.51111 20.9481L8.26666 23.7333L11.0815 22.5481C11.1111 22.5185 11.1704 22.5185 11.2296 22.5185C11.2889 22.5185 11.3481 22.5481 11.4074 22.5778C12.7704 23.4963 14.3407 24 16 24C20.4148 24 24 20.4148 24 16C24 11.5852 20.4148 8 16 8ZM20.3556 19.4963C20.237 19.7037 20.1185 19.8815 19.9407 20.0296C19.6741 20.2963 19.3481 20.5037 18.963 20.5926H18.9333C18.1037 20.3556 17.1556 19.8815 16.1778 19.1704C15.5556 18.7259 14.963 18.1926 14.3704 17.6C13.7778 17.0074 13.2741 16.4148 12.8 15.7926C12.0889 14.8148 11.6148 13.8667 11.3778 13.037V13.0074C11.4963 12.6519 11.6741 12.2963 11.9407 12.0296C12.0889 11.8815 12.2963 11.7333 12.4741 11.6148C12.8 11.437 13.1556 11.3481 13.5111 11.3481C13.6 11.3481 13.6593 11.3481 13.7481 11.3481C13.7778 11.3481 13.8074 11.3778 13.8074 11.4074C13.8963 11.6148 13.9556 11.7926 14.0444 11.9407C14.2518 12.4741 14.4 12.8889 15.0518 13.6296C15.0815 13.6593 15.0815 13.6889 15.0518 13.7185C14.9333 14.0444 14.7556 14.3407 14.5185 14.5778C14.4593 14.637 14.4296 14.6667 14.3704 14.6963C14.2222 14.8148 14.1333 14.9926 14.1333 15.1704C14.1333 15.3481 14.1926 15.5259 14.3111 15.6741C14.4296 15.7926 15.1704 16.5333 15.2593 16.6519C15.3778 16.7704 16.0889 17.4815 16.237 17.6C16.3556 17.7185 16.563 17.7778 16.7407 17.7778C16.9185 17.7778 17.0963 17.6889 17.2148 17.5407C17.2444 17.4815 17.3037 17.4519 17.363 17.3926C17.6 17.1556 17.8963 16.9778 18.2222 16.8593C18.2519 16.8593 18.2815 16.8593 18.3111 16.8593C19.0518 17.4815 19.4667 17.6593 20 17.8667C20.1481 17.9259 20.3259 17.9852 20.5333 18.1037C20.563 18.1037 20.5926 18.1333 20.5926 18.163C20.6519 18.637 20.563 19.1111 20.3556 19.4963Z" fill="white"/>
</g>
<circle id="Ellipse 6" cx="16" cy="16" r="15.5" transform="rotate(-180 16 16)" stroke="white" stroke-opacity="0.1"/>
</g>
</svg>
