<svg width="112" height="66" viewBox="0 0 112 66" fill="none" xmlns="http://www.w3.org/2000/svg">
<g id="Group">
<path id="Vector" d="M67.31 64.94H68.18V60.28H67.31V64.94ZM62.41 63.03C62.71 62.12 62.95 61.37 63.06 60.94C63.17 61.34 63.4 61.97 63.76 63.03H62.4H62.41ZM63.97 63.76L64.4 64.95H65.32L63.64 60.29H62.55L60.94 64.95H61.8L62.21 63.76H63.97ZM56.43 62.84H57.37C58 62.84 58.28 63.12 58.28 63.54C58.28 64.02 57.98 64.26 57.42 64.26H56.43V62.84ZM56.43 62.16V60.97H57.45C57.9 60.97 58.17 61.18 58.17 61.56C58.17 61.94 57.95 62.16 57.41 62.16H56.43ZM55.57 64.95H57.58C58.53 64.95 59.17 64.39 59.17 63.56C59.17 62.93 58.73 62.6 58.41 62.48C58.74 62.35 59.03 62 59.03 61.47C59.03 60.85 58.59 60.28 57.52 60.28H55.57V64.94V64.95ZM49.29 60.29V63.06C49.29 64.57 50.17 65.01 51.19 65.01C52.21 65.01 53.11 64.6 53.11 63.03V60.29H52.24V63.08C52.24 64 51.83 64.32 51.21 64.32C50.68 64.32 50.17 64.04 50.17 63.08V60.29H49.3H49.29ZM43.93 61H44.77C45.76 61 46.17 61.75 46.17 62.57C46.17 63.53 45.73 64.23 44.77 64.23H43.93V61ZM43.06 64.95H44.81C46.21 64.95 47.07 63.93 47.07 62.57C47.07 61.21 46.18 60.29 44.84 60.29H43.06V64.95ZM16.69 50.67H17.79V43.03H16.69V42.81H19.86C21.71 42.81 23.03 44.42 23.03 46.8C23.03 48.29 22.52 49.54 21.69 50.26C21.06 50.8 20.37 50.89 19.42 50.89H16.7V50.67H16.69ZM18.75 43.03V50.67H19.39C20.3 50.67 20.9 50.58 21.32 50.02C21.8 49.38 21.96 48.37 21.96 46.93C21.96 44.16 21.58 43.02 19.8 43.02H18.75V43.03ZM28.13 48.22C28.13 49.83 27.14 51.03 26.03 51.03C24.92 51.03 23.93 49.84 23.93 48.22C23.93 46.6 24.92 45.43 26.03 45.43C27.14 45.43 28.13 46.61 28.13 48.22ZM24.87 48.22C24.87 49.99 25.09 50.83 26.03 50.83C26.97 50.83 27.19 49.99 27.19 48.22C27.19 46.45 26.96 45.61 26.03 45.61C25.1 45.61 24.87 46.46 24.87 48.22ZM31.81 45.43C32.22 45.43 32.57 45.76 32.57 46.24C32.57 46.56 32.36 46.8 32.06 46.8C31.79 46.8 31.59 46.61 31.59 46.33C31.59 46.05 31.77 45.85 32.02 45.85C32.13 45.85 32.25 45.9 32.36 46C32.25 45.74 32.03 45.61 31.75 45.61C31.1 45.61 30.49 46.61 30.49 48.2V50.71H31.28V50.89H28.86V50.71H29.64V45.74H28.86V45.56H30.44L30.49 46.86C30.75 45.92 31.19 45.43 31.81 45.43ZM35.28 51.03C34.18 51.03 33.18 49.84 33.18 48.24C33.18 47.37 33.51 46.55 34.09 45.97C34.45 45.61 34.87 45.43 35.4 45.43C36.14 45.43 36.73 46.03 36.73 46.78C36.73 47.22 36.48 47.48 36.14 47.48C35.83 47.48 35.61 47.24 35.61 46.95C35.61 46.66 35.83 46.42 36.13 46.42C36.29 46.42 36.41 46.49 36.54 46.62C36.41 45.98 35.98 45.61 35.39 45.61C34.28 45.61 34.13 46.55 34.13 48.46C34.13 50.06 34.37 50.82 35.32 50.82C36.17 50.82 36.81 50.1 36.9 48.85H37.08C36.97 50.24 36.28 51.02 35.29 51.02M40.58 45.7C39.85 45.7 39.18 46.65 39.18 48.2V50.7H39.96V50.88H37.54V50.7H38.33V43H37.54V42.81H39.18V46.99C39.43 45.98 40.05 45.42 40.79 45.42C41.53 45.42 42.12 46.06 42.12 47.19V50.7H42.9V50.88H40.48V50.7H41.27V46.81C41.27 46.07 41.03 45.71 40.56 45.71M47.39 49.25C47.18 50.39 46.52 51.02 45.63 51.02C44.42 51.02 43.45 49.82 43.45 48.18C43.45 47.36 43.72 46.65 44.28 46.02C44.64 45.61 45.07 45.42 45.55 45.42C46.55 45.42 47.37 46.41 47.41 48.08H44.39C44.38 48.28 44.37 48.49 44.37 48.67C44.37 50.13 44.76 50.82 45.71 50.82C46.4 50.82 47 50.25 47.2 49.25H47.39ZM46.5 47.9C46.51 47.68 46.51 47.48 46.51 47.3C46.51 46.13 46.29 45.61 45.53 45.61C44.77 45.61 44.43 46.34 44.39 47.9H46.49H46.5ZM50.36 50.83C50.94 50.83 51.37 50.37 51.37 49.8C51.37 49.07 50.79 48.79 49.81 48.29C48.98 47.86 48.47 47.59 48.47 46.77C48.47 45.95 49.05 45.43 49.79 45.43C50.2 45.43 50.6 45.63 50.98 46.05L51.58 45.55H51.6V47.54H51.47C51.19 46.31 50.49 45.62 49.78 45.62C49.32 45.62 49.01 45.93 49.01 46.31C49.01 46.95 49.52 47.17 50.27 47.55C51.32 48.07 51.86 48.48 51.86 49.39C51.86 50.3 51.2 51.03 50.36 51.03C49.86 51.03 49.38 50.78 49 50.29L48.48 50.91H48.36V48.71H48.48C48.82 50.08 49.55 50.83 50.35 50.83M52.41 45.73V45.55H53.27V43.93C53.67 43.86 53.94 43.62 54.11 43.23V45.56H55.11V45.74H54.11V50.12C54.11 50.59 54.18 50.8 54.51 50.8C54.94 50.8 55.26 50.39 55.31 49.63H55.49C55.42 50.55 55.03 51.03 54.35 51.03C53.62 51.03 53.26 50.64 53.26 49.88V45.73H52.4H52.41ZM60.11 49.25C59.91 50.39 59.24 51.02 58.35 51.02C57.14 51.02 56.17 49.82 56.17 48.18C56.17 47.36 56.44 46.65 57 46.02C57.36 45.61 57.8 45.42 58.27 45.42C59.27 45.42 60.09 46.41 60.13 48.08H57.11C57.1 48.28 57.09 48.49 57.09 48.67C57.09 50.13 57.48 50.82 58.43 50.82C59.12 50.82 59.72 50.25 59.92 49.25H60.11ZM59.23 47.9C59.24 47.68 59.24 47.48 59.24 47.3C59.24 46.13 59.02 45.61 58.26 45.61C57.5 45.61 57.16 46.34 57.12 47.9H59.22H59.23ZM63.8 45.42C64.21 45.42 64.56 45.75 64.56 46.23C64.56 46.55 64.36 46.79 64.05 46.79C63.78 46.79 63.59 46.6 63.59 46.32C63.59 46.04 63.77 45.84 64.02 45.84C64.14 45.84 64.25 45.89 64.36 45.99C64.25 45.73 64.03 45.6 63.75 45.6C63.1 45.6 62.49 46.6 62.49 48.19V50.7H63.28V50.88H60.86V50.7H61.64V45.73H60.86V45.55H62.44L62.49 46.85C62.75 45.91 63.19 45.42 63.81 45.42M74.56 42.68L73.6 46.34H73.44C73.46 46.1 73.46 45.86 73.46 45.6C73.46 43.82 72.96 42.89 72.07 42.89C71.45 42.89 70.85 43.41 70.3 44.45C69.38 46.14 68.94 47.74 68.94 49.14C68.94 50.24 69.43 50.81 70.34 50.81C71.44 50.81 72.35 49.88 73.1 47.98L73.3 48.05C72.52 50.02 71.52 51.03 70.39 51.03C69 51.03 68.04 49.85 68.04 48.12C68.04 47.19 68.32 46.17 68.9 45.16C69.82 43.55 71.05 42.7 72.06 42.7C72.51 42.7 72.85 42.89 73.22 43.28C73.42 43.5 73.53 43.67 73.69 43.67C73.96 43.67 74.18 43.32 74.36 42.7H74.55L74.56 42.68ZM78.29 47.28C78.29 48 78.09 48.72 77.7 49.39C77.08 50.45 76.25 51.02 75.51 51.02C74.77 51.02 74.08 50.22 74.08 49.07C74.08 48.26 74.38 47.37 74.94 46.58C75.47 45.83 76.25 45.42 76.9 45.42C77.68 45.42 78.3 46.13 78.3 47.28M76.01 46.21C75.49 47.03 75.27 47.78 75.07 48.42C74.85 49.12 74.77 49.69 74.77 50.02C74.77 50.51 75.07 50.81 75.49 50.81C75.86 50.81 76.17 50.57 76.45 50.08C77.34 48.48 77.66 47.09 77.66 46.41C77.66 45.89 77.39 45.59 76.92 45.59C76.6 45.59 76.27 45.81 76.01 46.2M79.41 50.51C79.41 50.69 79.51 50.81 79.65 50.81C80.06 50.81 80.56 50.12 81.28 48.77L81.44 48.85C80.71 50.26 80.14 51.01 79.68 51.01C79.27 51.01 78.92 50.55 78.92 49.85C78.92 49.53 79.03 49.02 79.27 48.32L80.8 43.75C80.88 43.52 80.93 43.36 80.93 43.25C80.93 43.05 80.79 42.99 80.4 42.99H79.95L80.01 42.8H81.94L79.52 50.06C79.45 50.25 79.42 50.41 79.42 50.53M82.84 50.53C82.84 50.71 82.94 50.83 83.08 50.83C83.49 50.83 83.99 50.14 84.71 48.79L84.87 48.87C84.14 50.28 83.57 51.03 83.11 51.03C82.7 51.03 82.35 50.57 82.35 49.87C82.35 49.55 82.46 49.04 82.7 48.34L84.23 43.77C84.31 43.54 84.35 43.38 84.35 43.27C84.35 43.07 84.21 43.01 83.83 43.01H83.38L83.44 42.82H85.37L82.95 50.08C82.88 50.27 82.85 50.43 82.85 50.55M89.3 48.78C88.53 50.29 87.73 51.04 86.8 51.04C85.93 51.04 85.34 50.34 85.34 49.22C85.34 48.49 85.58 47.73 86.06 47.05C86.81 45.97 87.66 45.44 88.24 45.44C88.87 45.44 89.34 45.92 89.34 46.53C89.34 47.51 88.29 48.32 86.33 48.61C86.15 49.12 86.06 49.55 86.06 49.9C86.06 50.54 86.31 50.84 86.84 50.84C87.66 50.84 88.39 50.12 89.14 48.7L89.31 48.77L89.3 48.78ZM88.73 46.25C88.73 45.84 88.52 45.63 88.23 45.63C87.57 45.63 86.96 46.56 86.38 48.43C87.85 48.25 88.73 47.26 88.73 46.26M93.65 48.79C92.89 50.29 92.04 51.05 91.22 51.05C90.4 51.05 89.83 50.3 89.83 49.14C89.83 48.49 90.01 47.82 90.36 47.2C91.01 46.07 91.94 45.45 92.72 45.45C93.4 45.45 93.8 45.86 93.8 46.54C93.8 47.02 93.49 47.37 93.09 47.37C92.83 47.37 92.65 47.18 92.65 46.89C92.65 46.6 92.81 46.42 93.15 46.27C93.33 46.18 93.43 46.15 93.43 46.02C93.43 45.83 93.18 45.63 92.78 45.63C92.38 45.63 92.01 45.85 91.72 46.25C91.24 46.93 90.97 47.82 90.69 48.91C90.57 49.34 90.53 49.68 90.53 49.93C90.53 50.53 90.78 50.85 91.24 50.85C91.96 50.85 92.74 50.14 93.47 48.72L93.64 48.79H93.65ZM96.57 45.58H97.68L97.61 45.82H96.49L95.06 50.1C94.99 50.29 94.96 50.45 94.96 50.56C94.96 50.74 95.06 50.86 95.2 50.86C95.61 50.86 96.11 50.17 96.82 48.82L96.97 48.9C96.23 50.33 95.71 51.06 95.17 51.06C94.77 51.06 94.43 50.65 94.43 50.06C94.43 49.76 94.55 49.18 94.83 48.37L95.68 45.82H94.74L94.81 45.58H95.75L96.5 43.38H97.31L96.57 45.58ZM99.17 45.46C99.59 45.46 99.89 45.86 99.89 46.56C99.89 47.14 99.64 47.79 99.25 48.6C98.84 49.46 98.49 50.03 98.49 50.45C98.49 50.72 98.59 50.86 98.78 50.86C99.21 50.86 99.82 50.13 100.42 48.68L100.59 48.75C99.96 50.29 99.31 51.05 98.83 51.05C98.4 51.05 98.04 50.55 98.04 49.83C98.04 49.19 98.31 48.67 98.6 48.08C99.12 47 99.5 46.34 99.5 45.96C99.5 45.76 99.38 45.62 99.2 45.62C98.77 45.62 98.31 46.23 97.66 47.41L97.49 47.32C98.17 46.08 98.67 45.45 99.18 45.45M99.93 44.35C99.64 44.35 99.45 44.16 99.45 43.85C99.45 43.49 99.76 43.17 100.09 43.17C100.39 43.17 100.58 43.37 100.58 43.68C100.58 44.04 100.27 44.35 99.93 44.35ZM105.22 47.32C105.22 48.04 105.01 48.76 104.63 49.43C104.01 50.49 103.18 51.06 102.44 51.06C101.7 51.06 101.01 50.26 101.01 49.11C101.01 48.3 101.31 47.41 101.88 46.62C102.41 45.87 103.19 45.46 103.83 45.46C104.61 45.46 105.23 46.17 105.23 47.32M102.94 46.25C102.42 47.07 102.2 47.82 102 48.46C101.78 49.16 101.69 49.73 101.69 50.06C101.69 50.55 101.99 50.85 102.42 50.85C102.79 50.85 103.1 50.61 103.38 50.12C104.26 48.52 104.59 47.13 104.59 46.45C104.59 45.93 104.32 45.63 103.85 45.63C103.53 45.63 103.2 45.85 102.94 46.24M107.54 46.68C107.63 46.4 107.7 46.17 107.7 46C107.7 45.76 107.59 45.61 107.43 45.61C107.04 45.61 106.56 46.38 105.9 47.92L105.72 47.86C106.44 46.25 106.92 45.42 107.44 45.42C107.83 45.42 108.11 45.83 108.11 46.48C108.11 46.9 107.99 47.47 107.79 48.21C108.6 46.37 109.22 45.45 109.84 45.45C110.28 45.45 110.65 45.88 110.65 46.58C110.65 47.11 110.47 47.63 110.25 48.21C109.85 49.25 109.49 49.97 109.49 50.49C109.49 50.72 109.58 50.83 109.75 50.83C110.21 50.83 110.56 50.14 111.22 48.8L111.38 48.88C110.7 50.31 110.28 51.05 109.75 51.05C109.32 51.05 108.94 50.62 108.94 49.96C108.94 49.61 109.03 49.13 109.23 48.63L109.89 47.04C110.07 46.61 110.14 46.25 110.14 46.05C110.14 45.78 110.04 45.65 109.84 45.65C109.15 45.65 108.2 47.4 106.98 50.91H106.16L107.57 46.69L107.54 46.68ZM10.62 41.41V41.16C9.46 41.16 8.69003 41.5 8.28003 41.77C6.46003 42.99 5.88 45.47 5.88 47.19C5.88 48.91 6.45003 51.39 8.28003 52.61C8.69003 52.88 9.42999 53.22 10.62 53.22V52.97C9.49 52.94 8.74001 52.51 8.32001 51.86C7.82001 51.09 7.60999 49.45 7.60999 47.19C7.60999 44.93 7.81001 43.28 8.32001 42.52C8.75001 41.87 9.5 41.44 10.62 41.41ZM2.34003 41.77C1.93003 41.5 1.17 41.16 0 41.16V41.41C1.13 41.44 1.87999 41.87 2.29999 42.52C2.79999 43.28 3.01001 44.93 3.01001 47.19C3.01001 49.45 2.80999 51.1 2.29999 51.86C1.86999 52.51 1.12 52.94 0 52.97V53.22C1.18 53.22 1.93003 52.88 2.34003 52.61C4.16003 51.39 4.73999 48.92 4.73999 47.19C4.73999 45.46 4.17003 42.98 2.34003 41.77Z" fill="white"/>
<path id="Vector_2" d="M20.7197 8.24C20.7197 13 24.0897 16.46 28.7197 16.46C33.3497 16.46 36.7497 13 36.7497 8.24C36.7497 3.48 33.3297 0 28.7197 0C24.1097 0 20.7197 3.5 20.7197 8.24ZM22.9497 8.24C22.9497 4.65 25.3497 2.03 28.7297 2.03C32.1097 2.03 34.5097 4.65 34.5097 8.24C34.5097 11.83 32.1097 14.43 28.7297 14.43C25.3497 14.43 22.9497 11.83 22.9497 8.24ZM81.9597 1.06L75.7997 16.18H78.1597L79.5897 12.94H86.7297L88.1597 16.18H90.5097V16.16L84.3597 1.06C84.1397 0.52 83.6497 0.26 83.1597 0.26C82.6697 0.26 82.1797 0.53 81.9697 1.06M83.1597 3.66L85.9097 11H80.4097L83.1597 3.66ZM61.0097 0.27V16.17H70.7897V14.2H63.2197V0.27H61.0097ZM42.6897 0.27V2.22H47.7697C49.9097 2.22 51.3397 3.26 51.3397 5.21C51.3397 7.16 49.9297 8.2 47.7697 8.2H44.8897C43.6697 8.2 42.6797 9.19 42.6797 10.41V16.18H44.8897V10.54C44.8897 10.32 45.0697 10.14 45.2897 10.14H48.0097L51.7297 16.18H54.3297L50.3497 9.78C52.2797 9.09 53.5697 7.53 53.5697 5.22C53.5697 2.04 51.1297 0.29 47.9697 0.29H42.6897V0.27Z" fill="white"/>
<path id="Vector_3" d="M33.59 22.55H32.71V28.91H33.59V22.55Z" fill="white"/>
<path id="Vector_4" d="M48.3195 23.3601H45.3995V25.3801H47.8695V26.1701H45.3995V28.91H44.5195V22.55H48.3195V23.3601Z" fill="white"/>
<path id="Vector_5" d="M51.63 22.55H50.75V28.91H51.63V22.55Z" fill="white"/>
<path id="Vector_6" d="M58.7696 28.7801L55.4796 24.2901V28.9201H54.5996V22.9801C54.5996 22.6001 55.0596 22.4201 55.3196 22.6901L58.6096 27.1801V22.5601H59.4896V28.5001C59.4896 28.8801 59.0296 29.0601 58.7696 28.7901" fill="white"/>
<path id="Vector_7" d="M63.38 22.55H62.5V28.91H63.38V22.55Z" fill="white"/>
<path id="Vector_8" d="M71.1798 23.3301H68.9498V28.91H68.0698V23.3301H65.8398V22.55H71.1798V23.3301Z" fill="white"/>
<path id="Vector_9" d="M76.1697 26.2201V28.91H75.2797V26.23L72.9297 22.55H73.9597L75.7297 25.34L77.4797 22.55H78.5197L76.1697 26.2201Z" fill="white"/>
<path id="Vector_10" d="M40.7696 28.7801L37.4796 24.2901V28.9201H36.5996V22.9801C36.5996 22.6001 37.0596 22.4201 37.3196 22.6901L40.6096 27.1801V22.5601H41.4896V28.5001C41.4896 28.8801 41.0296 29.0601 40.7696 28.7901" fill="white"/>
</g>
</svg>
