<svg width="468" height="111" viewBox="0 0 468 111" fill="none" xmlns="http://www.w3.org/2000/svg">
<mask id="mask0_666_275" style="mask-type:luminance" maskUnits="userSpaceOnUse" x="0" y="0" width="468" height="111">
<path d="M467.415 0.884644H0.584839V110.025H467.415V0.884644Z" fill="white"/>
</mask>
<g mask="url(#mask0_666_275)">
<path d="M79.4041 67.329V99.3701H82.0741C85.8867 99.3701 88.4028 98.985 90.1615 96.6615C92.164 93.9914 92.8316 89.7551 92.8316 83.7089C92.8316 72.0914 91.2654 67.329 83.7815 67.329H79.4041ZM70.7776 99.3701H75.3989V67.329H70.7776V66.4304H84.0639C91.8303 66.4304 97.3502 73.1954 97.3502 83.1441C97.3502 89.3829 95.2064 94.6204 91.7276 97.6628C89.1088 99.9478 86.2077 100.282 82.2025 100.282H70.7776V99.3829V99.3701Z" fill="#052133"/>
<path d="M105.065 89.0876C105.065 96.5203 105.977 100.038 109.917 100.038C113.858 100.038 114.77 96.5203 114.77 89.0876C114.77 81.655 113.82 78.1377 109.917 78.1377C106.015 78.1377 105.065 81.7064 105.065 89.0876ZM118.737 89.0876C118.737 95.8527 114.59 100.846 109.93 100.846C105.27 100.846 101.124 95.8399 101.124 89.0876C101.124 82.3354 105.258 77.3803 109.93 77.3803C114.603 77.3803 118.737 82.3354 118.737 89.0876Z" fill="#052133"/>
<path d="M134.154 77.3803C135.874 77.3803 137.35 78.7539 137.35 80.7564C137.35 82.0915 136.49 83.0928 135.206 83.0928C134.064 83.0928 133.255 82.2969 133.255 81.1415C133.255 79.9862 134.013 79.139 135.065 79.139C135.54 79.139 136.015 79.3316 136.49 79.7552C136.015 78.6641 135.104 78.1377 133.923 78.1377C131.214 78.1377 128.634 82.3226 128.634 88.9979V99.5241H131.971V100.294H121.83V99.5241H125.116V78.664H121.83V77.9067H128.441L128.634 83.3752C129.725 79.4214 131.586 77.3803 134.154 77.3803Z" fill="#052133"/>
<path d="M148.685 100.859C144.064 100.859 139.879 95.8528 139.879 89.139C139.879 85.4805 141.266 82.0401 143.692 79.6139C145.207 78.0863 146.978 77.3803 149.16 77.3803C152.254 77.3803 154.732 79.9093 154.732 83.0543C154.732 84.9028 153.679 85.994 152.254 85.994C150.97 85.994 150.02 85.0055 150.02 83.7603C150.02 82.5152 150.919 81.5139 152.216 81.5139C152.883 81.5139 153.409 81.7963 153.923 82.3739C153.397 79.6653 151.586 78.1377 149.109 78.1377C144.436 78.1377 143.82 82.0915 143.82 90.089C143.82 96.8027 144.821 99.9863 148.814 99.9863C152.382 99.9863 155.052 96.9952 155.425 91.7449H156.182C155.707 97.5601 152.845 100.846 148.66 100.846" fill="#052133"/>
<path d="M170.868 78.5741C167.825 78.5741 165.014 82.5793 165.014 89.0491V99.5241H168.3V100.294H158.159V99.5241H161.497V67.2391H158.159V66.4304H165.014V83.9528C166.067 79.7166 168.685 77.3803 171.779 77.3803C174.873 77.3803 177.35 80.0376 177.35 84.813V99.5241H180.637V100.294H170.495V99.5241H173.833V83.1955C173.833 80.1018 172.832 78.5741 170.881 78.5741" fill="#052133"/>
<path d="M195.797 87.7655C195.848 86.8541 195.848 85.9939 195.848 85.2365C195.848 80.3328 194.937 78.1377 191.753 78.1377C188.57 78.1377 187.132 81.1929 186.991 87.7655H195.797ZM199.507 93.4266C198.647 98.1891 195.836 100.859 192.126 100.859C187.042 100.859 182.986 95.8143 182.986 88.9593C182.986 85.5318 184.128 82.528 186.465 79.9092C187.992 78.1891 189.802 77.3803 191.792 77.3803C195.977 77.3803 199.404 81.5267 199.597 88.5228H186.927C186.875 89.3829 186.837 90.243 186.837 91.0004C186.837 97.1493 188.454 99.9991 192.459 99.9991C195.361 99.9991 197.889 97.6243 198.698 93.4266H199.507Z" fill="#052133"/>
<path d="M211.985 100.05C214.411 100.05 216.221 98.1378 216.221 95.7116C216.221 92.6692 213.795 91.4754 209.7 89.383C206.221 87.5729 204.077 86.4304 204.077 83.0029C204.077 79.5754 206.503 77.3803 209.597 77.3803C211.317 77.3803 212.973 78.2404 214.603 79.9991L217.132 77.9067H217.222V86.2379H216.696C215.502 81.0902 212.601 78.189 209.597 78.189C207.684 78.189 206.362 79.4728 206.362 81.0902C206.362 83.7988 208.506 84.7102 211.651 86.2763C216.028 88.4715 218.326 90.1788 218.326 93.9914C218.326 97.804 215.566 100.846 212.036 100.846C209.944 100.846 207.941 99.7937 206.324 97.7526L204.128 100.371H203.602V91.1416H204.128C205.553 96.9054 208.608 100.05 211.985 100.05Z" fill="#052133"/>
<path d="M220.611 78.664V77.9066H224.231V71.0902C225.9 70.8078 227.042 69.8065 227.748 68.1377V77.8938H231.946V78.6511H227.748V97.0337C227.748 98.9849 228.044 99.8964 229.417 99.8964C231.227 99.8964 232.562 98.1763 232.793 94.9927H233.564C233.281 98.8566 231.612 100.859 228.801 100.859C225.746 100.859 224.231 99.2417 224.231 96.0453V78.664H220.611Z" fill="#052133"/>
<path d="M249.186 87.7655C249.237 86.8541 249.237 85.9939 249.237 85.2365C249.237 80.3328 248.326 78.1377 245.142 78.1377C241.959 78.1377 240.521 81.1929 240.38 87.7655H249.199H249.186ZM252.896 93.4266C252.036 98.1891 249.225 100.859 245.515 100.859C240.418 100.859 236.375 95.8143 236.375 88.9593C236.375 85.5318 237.517 82.528 239.854 79.9092C241.381 78.1891 243.191 77.3803 245.194 77.3803C249.379 77.3803 252.806 81.5267 252.999 88.5228H240.329C240.29 89.3829 240.239 90.243 240.239 91.0004C240.239 97.1493 241.856 99.9991 245.861 99.9991C248.762 99.9991 251.291 97.6243 252.1 93.4266H252.909H252.896Z" fill="#052133"/>
<path d="M268.326 77.3803C270.046 77.3803 271.523 78.7539 271.523 80.7564C271.523 82.0915 270.662 83.0928 269.379 83.0928C268.236 83.0928 267.427 82.2969 267.427 81.1415C267.427 79.9862 268.185 79.139 269.238 79.139C269.725 79.139 270.187 79.3316 270.662 79.7552C270.175 78.6641 269.276 78.1377 268.095 78.1377C265.374 78.1377 262.806 82.3226 262.806 88.9979V99.5241H266.131V100.294H255.99V99.5241H259.276V78.664H255.99V77.9067H262.601L262.793 83.3752C263.884 79.4214 265.746 77.3803 268.313 77.3803" fill="#052133"/>
<path d="M313.384 65.904L309.379 81.2314H308.711C308.814 80.2301 308.814 79.2289 308.814 78.1377C308.814 70.6666 306.709 66.7513 303.012 66.7513C300.393 66.7513 297.915 68.9464 295.579 73.2725C291.715 80.3714 289.867 87.0851 289.867 92.9387C289.867 97.56 291.908 99.9349 295.72 99.9349C300.342 99.9349 304.154 96.0325 307.299 88.0735L308.146 88.356C304.86 96.6487 300.675 100.834 295.951 100.834C290.149 100.834 286.093 95.8784 286.093 88.6384C286.093 84.7359 287.286 80.4484 289.713 76.2122C293.564 69.4471 298.711 65.8784 302.947 65.8784C304.847 65.8784 306.272 66.6871 307.8 68.3045C308.66 69.2159 309.084 69.922 309.751 69.922C310.894 69.922 311.805 68.4458 312.562 65.8655H313.371L313.384 65.904Z" fill="#052133"/>
<path d="M319.392 80.718C317.197 84.1455 316.298 87.2905 315.438 89.9991C314.539 92.9516 314.154 95.3264 314.154 96.7128C314.154 98.7539 315.387 99.9991 317.197 99.9991C318.776 99.9991 320.059 98.9978 321.202 96.9567C324.912 90.243 326.298 84.4278 326.298 81.578C326.298 79.3829 325.156 78.1506 323.204 78.1506C321.869 78.1506 320.496 79.062 319.392 80.718ZM329.007 85.1981C329.007 88.2019 328.159 91.2443 326.529 94.0556C323.91 98.4843 320.431 100.872 317.338 100.872C314.244 100.872 311.343 97.5345 311.343 92.6821C311.343 89.3059 312.575 85.5447 314.963 82.2584C317.197 79.1134 320.444 77.406 323.166 77.406C326.452 77.406 329.019 80.4099 329.019 85.2109" fill="#052133"/>
<path d="M333.666 98.8053C333.666 99.5626 334.103 100.05 334.668 100.05C336.388 100.05 338.48 97.1365 341.484 91.4754L342.152 91.8091C339.109 97.7141 336.722 100.859 334.77 100.859C333.063 100.859 331.574 98.9465 331.574 96.0068C331.574 94.6718 332.062 92.528 333.05 89.5755L339.482 70.4355C339.815 69.4856 340.008 68.8181 340.008 68.3431C340.008 67.483 339.43 67.252 337.813 67.252H335.9L336.144 66.4432H344.244L334.103 96.8669C333.808 97.6756 333.666 98.3431 333.666 98.8181" fill="#052133"/>
<path d="M348.005 98.8053C348.005 99.5626 348.442 100.05 349.007 100.05C350.727 100.05 352.819 97.1365 355.823 91.4754L356.491 91.8091C353.448 97.7141 351.061 100.859 349.109 100.859C347.389 100.859 345.913 98.9465 345.913 96.0068C345.913 94.6718 346.388 92.528 347.389 89.5755L353.821 70.4355C354.154 69.4856 354.347 68.8181 354.347 68.3431C354.347 67.483 353.782 67.252 352.152 67.252H350.252L350.483 66.4432H358.583L348.442 96.8669C348.147 97.6756 348.005 98.3431 348.005 98.8181" fill="#052133"/>
<path d="M372.665 80.7564C372.665 79.0491 371.805 78.1377 370.573 78.1377C367.813 78.1377 365.246 82.0402 362.806 89.8579C368.955 89.0877 372.665 84.9541 372.665 80.7564ZM375.04 91.3727C371.805 97.7141 368.468 100.859 364.565 100.859C360.907 100.859 358.429 97.9067 358.429 93.2341C358.429 90.1788 359.43 86.9952 361.42 84.1454C364.565 79.614 368.134 77.3803 370.56 77.3803C373.179 77.3803 375.181 79.3829 375.181 81.9503C375.181 86.0453 370.791 89.4728 362.563 90.6667C361.792 92.7976 361.42 94.6204 361.42 96.0838C361.42 98.7539 362.473 100.038 364.706 100.038C368.134 100.038 371.228 97.0338 374.321 91.0774L375.04 91.3598V91.3727Z" fill="#052133"/>
<path d="M393.282 91.3726C390.085 97.6628 386.516 100.859 383.089 100.859C379.661 100.859 377.287 97.7141 377.287 92.8617C377.287 90.1403 378.044 87.329 379.52 84.7231C382.242 79.9606 386.144 77.3931 389.43 77.3931C392.293 77.3931 393.962 79.1133 393.962 81.9631C393.962 83.9657 392.678 85.442 390.958 85.442C389.867 85.442 389.097 84.6332 389.097 83.4394C389.097 82.2455 389.764 81.4881 391.189 80.8206C391.959 80.4355 392.383 80.2943 392.383 79.768C392.383 78.9593 391.33 78.1505 389.674 78.1505C388.018 78.1505 386.439 79.0619 385.246 80.7693C383.243 83.6319 382.1 87.3418 380.907 91.9118C380.432 93.7218 380.239 95.1596 380.239 96.1994C380.239 98.7283 381.279 100.063 383.243 100.063C386.247 100.063 389.533 97.0594 392.575 91.103L393.294 91.3855L393.282 91.3726Z" fill="#052133"/>
<path d="M405.515 77.9067H410.188L409.893 78.9079H405.181L399.174 96.8541C398.891 97.6628 398.75 98.3303 398.75 98.8053C398.75 99.5626 399.174 100.05 399.751 100.05C401.459 100.05 403.564 97.1365 406.555 91.4754L407.184 91.8091C404.077 97.804 401.895 100.859 399.661 100.859C397.993 100.859 396.568 99.139 396.568 96.6743C396.568 95.4292 397.094 93.0029 398.237 89.5754L401.805 78.9079H397.851L398.147 77.9067H402.088L405.233 68.664H408.609L405.515 77.9067Z" fill="#052133"/>
<path d="M419.572 72.759C418.327 72.759 417.569 71.9503 417.569 70.6666C417.569 69.1518 418.853 67.804 420.239 67.804C421.472 67.804 422.293 68.664 422.293 69.9477C422.293 71.4625 421.009 72.759 419.585 72.759M416.439 77.3803C418.198 77.3803 419.443 79.0492 419.443 82.0017C419.443 84.4279 418.391 87.1493 416.773 90.5768C415.053 94.1968 413.577 96.5716 413.577 98.3431C413.577 99.4856 414.013 100.063 414.809 100.063C416.619 100.063 419.148 97.021 421.664 90.9234L422.383 91.2186C419.764 97.6885 417.004 100.885 415.002 100.885C413.192 100.885 411.664 98.7796 411.664 95.7886C411.664 93.1313 412.807 90.9362 414 88.4586C416.196 83.94 417.762 81.1672 417.762 79.5498C417.762 78.6897 417.235 78.1249 416.529 78.1249C414.719 78.1249 412.768 80.6923 410.06 85.6473L409.341 85.2622C412.203 80.0761 414.296 77.406 416.439 77.406" fill="#052133"/>
<path d="M432.139 80.718C429.957 84.1455 429.045 87.2905 428.185 89.9991C427.287 92.9516 426.902 95.3264 426.902 96.7128C426.902 98.7539 428.134 99.9991 429.944 99.9991C431.51 99.9991 432.794 98.9978 433.936 96.9567C437.646 90.243 439.033 84.4278 439.033 81.578C439.033 79.3829 437.89 78.1506 435.939 78.1506C434.604 78.1506 433.217 79.062 432.126 80.718M441.741 85.1981C441.741 88.2019 440.881 91.2443 439.264 94.0556C436.645 98.4843 433.166 100.872 430.072 100.872C426.979 100.872 424.065 97.5345 424.065 92.6821C424.065 89.3059 425.297 85.5447 427.685 82.2584C429.918 79.1134 433.166 77.406 435.875 77.406C439.161 77.406 441.728 80.4099 441.728 85.2109" fill="#052133"/>
<path d="M451.42 82.5665C451.792 81.3855 452.088 80.4227 452.088 79.7167C452.088 78.7154 451.613 78.0992 450.945 78.0992C449.328 78.0992 447.287 81.3341 444.514 87.8168L443.744 87.5858C446.748 80.8207 448.789 77.3419 450.932 77.3419C452.563 77.3419 453.744 79.062 453.744 81.7706C453.744 83.5293 453.217 85.9169 452.409 89.0106C455.785 81.2956 458.403 77.4317 460.984 77.4317C462.832 77.4317 464.36 79.2417 464.36 82.1429C464.36 84.3765 463.59 86.5203 462.691 88.9593C461.022 93.3367 459.495 96.3406 459.495 98.5229C459.495 99.4728 459.88 99.9478 460.586 99.9478C462.486 99.9478 463.962 97.0466 466.735 91.424L467.402 91.7449C464.552 97.7526 462.794 100.846 460.547 100.846C458.737 100.846 457.171 99.0364 457.171 96.2636C457.171 94.7873 457.556 92.7847 458.404 90.6923L461.163 84.0299C461.934 82.2199 462.203 80.7051 462.203 79.8836C462.203 78.7411 461.78 78.2148 460.92 78.2148C458.018 78.2148 454.065 85.5447 448.917 100.269H445.489L451.394 82.5537L451.42 82.5665Z" fill="#052133"/>
<path d="M10.3795 62.0144C8.65931 60.8719 5.45006 59.447 0.584839 59.447V60.4868C5.32169 60.6152 8.45392 62.438 10.2383 65.1467C12.3564 68.3559 13.2036 75.2237 13.2036 84.7359C13.2036 94.2481 12.3564 101.116 10.2383 104.325C8.45392 107.047 5.30886 108.857 0.584839 108.985V110.025C5.55276 110.025 8.65931 108.6 10.3795 107.457C18.0175 102.361 20.4308 91.9632 20.4308 84.7359C20.4308 77.5087 18.0175 67.1107 10.3795 62.0144ZM45.0907 60.4868V59.447C40.2127 59.447 37.0034 60.8719 35.2961 62.0144C27.6452 67.1107 25.2447 77.5087 25.2447 84.7359C25.2447 91.9632 27.6581 102.361 35.2961 107.457C37.0162 108.6 40.1228 110.025 45.0907 110.025V108.985C40.3539 108.844 37.2216 107.034 35.4245 104.325C33.3064 101.116 32.4591 94.2481 32.4591 84.7359C32.4591 75.2237 33.3064 68.3559 35.4245 65.1467C37.2088 62.4252 40.3539 60.6152 45.0907 60.4868Z" fill="#052133"/>
</g>
<path d="M16.0792 0.884644L10.2512 18.9078L4.47457 0.884644H0.98291V22.0015H2.80576V2.88721H3.24222L9.44249 22.0015H11.0985L17.3116 2.88721H17.7352V22.0015H19.5452V0.884644H16.0792Z" fill="#052133"/>
<mask id="mask1_666_275" style="mask-type:luminance" maskUnits="userSpaceOnUse" x="0" y="0" width="468" height="111">
<path d="M467.415 0.884644H0.584839V110.025H467.415V0.884644Z" fill="white"/>
</mask>
<g mask="url(#mask1_666_275)">
<path d="M32.9726 18.1247V13.4136C29.9944 14.0683 28.0046 14.7358 27.0034 15.4033C26.0021 16.0708 25.4886 16.9822 25.4886 18.1247C25.4886 18.972 25.7197 19.6395 26.1689 20.1145C26.6182 20.5894 27.2344 20.8333 28.0175 20.8333C28.8005 20.8333 29.6093 20.6151 30.3923 20.1915C31.1754 19.755 32.0355 19.0747 32.9726 18.1247ZM33.2806 22.0143C33.1779 21.5779 33.1138 21.2056 33.0753 20.8846C33.0367 20.5766 32.9982 20.2814 32.9854 19.999C32.1382 20.782 31.2909 21.3597 30.4565 21.7319C29.6093 22.1042 28.7363 22.2968 27.8121 22.2968C26.5926 22.2968 25.5913 21.9245 24.8339 21.1671C24.0765 20.4097 23.6914 19.4341 23.6914 18.2146C23.6914 16.5586 24.3846 15.2493 25.7838 14.2993C27.1831 13.3494 29.5964 12.5663 33.0111 11.9373V10.4482C33.0111 9.69086 32.7158 9.07462 32.1125 8.62533C31.5091 8.1632 30.7004 7.94501 29.6734 7.94501C28.8519 7.94501 28.1202 8.15036 27.504 8.54831C26.8878 8.94626 26.3487 9.56243 25.8865 10.3968L24.4745 9.5881C25.1035 8.49696 25.848 7.70108 26.7209 7.20044C27.581 6.6998 28.6465 6.45587 29.9174 6.45587C31.3423 6.45587 32.5233 6.841 33.4475 7.59838C34.3718 8.35577 34.8339 9.31853 34.8339 10.4739V19.9861C34.8339 20.1787 34.8596 20.4482 34.9109 20.8076C34.9623 21.1671 35.0265 21.565 35.1035 22.04H33.3063L33.2806 22.0143Z" fill="#052133"/>
<path d="M39.4681 22.0016V6.71266H41.2782V9.11317C42.1767 8.22742 43.0625 7.5599 43.9482 7.1106C44.834 6.66131 45.7069 6.44305 46.5798 6.44305C47.9534 6.44305 48.9804 6.85387 49.6607 7.67543C50.3411 8.497 50.6877 9.72936 50.6877 11.3725V22.0143H48.8777V12.0143C48.8777 10.4867 48.6594 9.44694 48.2358 8.88212C47.8122 8.31729 47.0676 8.03491 46.0278 8.03491C45.2576 8.03491 44.4746 8.27881 43.6787 8.75378C42.8828 9.22875 42.0869 9.93475 41.2782 10.8847V22.0272H39.4681V22.0016Z" fill="#052133"/>
<path d="M63.499 18.1247V13.4136C60.5208 14.0683 58.5311 14.7358 57.5298 15.4033C56.5285 16.0708 56.0279 16.9822 56.0279 18.1247C56.0279 18.972 56.2589 19.6395 56.7082 20.1145C57.1575 20.5894 57.7737 20.8333 58.5696 20.8333C59.3655 20.8333 60.1614 20.6151 60.9444 20.1915C61.7275 19.755 62.5876 19.0747 63.5247 18.1247M63.8328 22.0143C63.7301 21.5779 63.6659 21.2056 63.6274 20.8846C63.5889 20.5766 63.5504 20.2814 63.5375 19.999C62.6903 20.782 61.843 21.3597 61.0086 21.7319C60.1614 22.1042 59.2756 22.2968 58.3642 22.2968C57.1447 22.2968 56.1434 21.9245 55.386 21.1671C54.6286 20.4097 54.2435 19.4341 54.2435 18.2146C54.2435 16.5586 54.9367 15.2493 56.336 14.2993C57.7352 13.3494 60.1486 12.5663 63.5632 11.9373V10.4482C63.5632 9.69086 63.2679 9.07462 62.6646 8.62533C62.0613 8.1632 61.2525 7.94501 60.2256 7.94501C59.404 7.94501 58.6723 8.15036 58.0561 8.54831C57.4399 8.94626 56.9008 9.56243 56.4387 10.3968L55.0266 9.5881C55.6556 8.49696 56.4001 7.70108 57.2731 7.20044C58.1331 6.6998 59.1986 6.45587 60.4695 6.45587C61.8944 6.45587 63.0754 6.841 63.9997 7.59838C64.9239 8.35577 65.386 9.31853 65.386 10.4739V19.9861C65.386 20.1787 65.4117 20.4482 65.4631 20.8076C65.5144 21.1671 65.5786 21.565 65.6556 22.04H63.8584L63.8328 22.0143Z" fill="#052133"/>
<path d="M70.7774 11.7319C70.7774 12.8488 71.1497 13.7986 71.8814 14.5689C72.6131 15.3519 73.4989 15.7371 74.5515 15.7371C75.6041 15.7371 76.5284 15.3648 77.2473 14.6074C77.9533 13.85 78.3127 12.8873 78.3127 11.7319C78.3127 10.5766 77.9533 9.61379 77.2601 8.88208C76.5541 8.13753 75.6555 7.76527 74.5643 7.76527C73.5245 7.76527 72.6388 8.15041 71.9071 8.92063C71.1625 9.69085 70.8031 10.628 70.8031 11.7319M72.6773 20.859C71.8172 21.2441 71.1625 21.6678 70.7261 22.1427C70.2896 22.6177 70.0714 23.1183 70.0714 23.6703C70.0714 24.4662 70.495 25.0824 71.3294 25.5317C72.1638 25.981 73.332 26.212 74.8082 26.212C76.2845 26.212 77.5682 25.9681 78.4283 25.4675C79.2884 24.9668 79.7248 24.2865 79.7248 23.4007C79.7248 22.515 79.2113 21.8218 78.1844 21.4367C77.1574 21.0516 75.3217 20.859 72.6773 20.859ZM70.9443 16.0066V15.8397C70.3281 15.2749 69.866 14.6587 69.5579 13.9912C69.2498 13.3237 69.0958 12.5791 69.0958 11.7447C69.0958 10.2171 69.6221 8.94628 70.6619 7.93215C71.7017 6.90519 73.0111 6.3917 74.5643 6.3917C75.2832 6.3917 75.9507 6.49443 76.5412 6.67415C77.1317 6.86671 77.7094 7.16196 78.2486 7.55991C78.7235 7.09778 79.2113 6.75118 79.712 6.52011C80.2126 6.28905 80.7518 6.18634 81.3294 6.18634V7.88083H80.97C80.5592 7.88083 80.1998 7.93216 79.8917 8.02202C79.5836 8.11188 79.3012 8.25311 79.0445 8.44566C79.3654 8.93347 79.6093 9.43409 79.7633 9.94757C79.9174 10.4611 79.9944 11.013 79.9944 11.5907C79.9944 13.2338 79.5066 14.5689 78.5181 15.583C77.5425 16.5972 76.2717 17.1106 74.7056 17.1106C74.3461 17.1106 73.9738 17.0849 73.5887 17.0079C73.2036 16.9437 72.8057 16.841 72.3949 16.687C71.8429 16.8282 71.4193 17.0208 71.1112 17.2518C70.8159 17.4829 70.6619 17.7525 70.6619 18.0477C70.6619 18.7281 71.9199 19.1516 74.436 19.28C75.2062 19.3185 75.8224 19.3571 76.2973 19.3956C77.9405 19.5111 79.1985 19.8962 80.0714 20.5637C80.9443 21.2184 81.3808 22.1299 81.3808 23.2852C81.3808 24.6845 80.816 25.7499 79.6735 26.4816C78.531 27.2133 76.875 27.5856 74.7184 27.5856C72.7287 27.5856 71.1754 27.2518 70.0714 26.5843C68.9546 25.9167 68.4026 24.9797 68.4026 23.7858C68.4026 23.1568 68.5823 22.6048 68.9417 22.1042C69.3012 21.6164 69.8788 21.1543 70.6491 20.705V20.4097C70.1356 20.2556 69.7376 20.0118 69.4552 19.678C69.1728 19.3443 69.0316 18.9463 69.0316 18.4841C69.0316 18.0477 69.1856 17.6241 69.4937 17.2261C69.8018 16.8282 70.2768 16.4174 70.9315 15.9937" fill="#052133"/>
<path d="M92.9085 12.9899C92.87 11.3853 92.4977 10.1273 91.8045 9.24155C91.1113 8.35579 90.1486 7.90645 88.9162 7.90645C87.6839 7.90645 86.6826 8.35573 85.9124 9.25432C85.1421 10.1529 84.68 11.3981 84.5388 12.9899H92.9214H92.9085ZM93.3578 17.5856L94.6929 18.3172C94.0125 19.7036 93.2294 20.6921 92.3052 21.3211C91.3938 21.9501 90.2641 22.2582 88.9419 22.2582C87.042 22.2582 85.5272 21.5522 84.3976 20.153C83.2679 18.7538 82.7159 16.8538 82.7159 14.4661C82.7159 12.0785 83.2808 10.0503 84.3976 8.58685C85.5144 7.13627 87.0163 6.40454 88.8905 6.40454C90.7647 6.40454 92.164 7.03353 93.1396 8.30439C94.1152 9.57525 94.6158 11.411 94.6158 13.8115V14.2993H84.5388C84.5388 16.4046 84.9367 18.0092 85.7198 19.126C86.49 20.2428 87.6068 20.7948 89.0703 20.7948C90.0459 20.7948 90.8674 20.5509 91.535 20.0374C92.2153 19.5368 92.8187 18.7153 93.3578 17.5856Z" fill="#052133"/>
<path d="M106.824 17.9065V10.7819C106.092 9.80634 105.36 9.07469 104.616 8.59972C103.884 8.12475 103.127 7.88085 102.357 7.88085C101.111 7.88085 100.149 8.44568 99.4682 9.5625C98.7878 10.6922 98.4541 12.2711 98.4541 14.325C98.4541 16.3789 98.7878 17.9707 99.4682 19.0875C100.149 20.2043 101.111 20.7692 102.357 20.7692C103.152 20.7692 103.91 20.5381 104.629 20.0888C105.348 19.6266 106.079 18.9078 106.824 17.9065ZM106.824 20.0246H106.683C105.977 20.7948 105.245 21.3597 104.5 21.7191C103.743 22.0785 102.947 22.2582 102.074 22.2582C100.431 22.2582 99.1088 21.5394 98.1203 20.1145C97.1319 18.6896 96.6312 16.764 96.6312 14.3378C96.6312 11.9116 97.1319 9.99893 98.1203 8.57402C99.1088 7.14912 100.431 6.44304 102.074 6.44304C102.947 6.44304 103.756 6.62282 104.5 6.9951C105.258 7.35453 105.977 7.93214 106.683 8.70236H106.824V0.897522H108.634V19.7807C108.634 20.4354 108.634 20.9103 108.659 21.2056C108.672 21.5008 108.711 21.7705 108.762 22.0016H107.286L106.811 20.0118L106.824 20.0246Z" fill="#052133"/>
<path d="M123.923 17.9065C124.68 18.9078 125.412 19.6395 126.131 20.0888C126.849 20.5381 127.607 20.7692 128.39 20.7692C129.648 20.7692 130.611 20.2043 131.291 19.0875C131.971 17.9707 132.305 16.3789 132.305 14.325C132.305 12.2711 131.959 10.6793 131.278 9.5625C130.598 8.44568 129.622 7.88085 128.377 7.88085C127.62 7.88085 126.875 8.1119 126.143 8.58687C125.412 9.06184 124.667 9.7935 123.91 10.7819V17.9065H123.923ZM121.997 22.0016C122.036 21.7705 122.061 21.5008 122.087 21.2056C122.1 20.9103 122.113 20.4354 122.113 19.7807V0.897522H123.923V8.70236H124.064C124.783 7.93214 125.502 7.36737 126.246 6.9951C126.991 6.62282 127.787 6.44304 128.659 6.44304C130.303 6.44304 131.625 7.16197 132.626 8.58687C133.627 10.0118 134.128 11.9373 134.128 14.3378C134.128 16.7383 133.627 18.6767 132.626 20.1145C131.625 21.5394 130.303 22.2582 128.659 22.2582C127.787 22.2582 126.991 22.0785 126.246 21.7191C125.502 21.3597 124.77 20.7948 124.064 20.0246H123.923L123.448 22.0143H121.984L121.997 22.0016Z" fill="#052133"/>
<path d="M140.842 21.9117L135.527 6.69977H137.337L141.83 19.7037L146.298 6.69977H148.031L142.28 23.1954C141.728 24.8 141.086 25.9039 140.354 26.5458C139.622 27.1748 138.621 27.4957 137.363 27.4957C137.093 27.4957 136.824 27.4957 136.554 27.47C136.298 27.4572 136.028 27.4187 135.771 27.3802V25.9039C135.977 25.9553 136.195 25.9938 136.4 26.0067C136.618 26.0323 136.837 26.0323 137.055 26.0323C138.12 26.0323 138.942 25.7242 139.52 25.0952C140.097 24.4662 140.534 23.4136 140.829 21.9117" fill="#052133"/>
</g>
</svg>
