<svg xmlns="http://www.w3.org/2000/svg" viewBox="0 0 12.96 12.96"><defs><style>.cls-1{fill:#000;fill-rule:evenodd;}</style></defs><g id="Layer_2" data-name="Layer 2"><g id="Layer_1-2" data-name="Layer 1"><path class="cls-1" d="M4.32,6.48A2.16,2.16,0,1,0,6.48,4.32,2.16,2.16,0,0,0,4.32,6.48Zm-1.16,0A3.33,3.33,0,1,1,6.48,9.81,3.33,3.33,0,0,1,3.16,6.48Zm7.56-3.34a.77.77,0,0,1-.78.77.76.76,0,0,1-.77-.77.77.77,0,0,1,.77-.78A.78.78,0,0,1,10.72,3.14ZM6.48,0c-1.76,0-2,0-2.67,0a4.81,4.81,0,0,0-1.58.3,3.14,3.14,0,0,0-1.14.75A3,3,0,0,0,.34,2.23,4.81,4.81,0,0,0,0,3.81c0,.69,0,.91,0,2.67s0,2,0,2.67a4.81,4.81,0,0,0,.3,1.58,3.14,3.14,0,0,0,.75,1.14,2.94,2.94,0,0,0,1.14.75,4.81,4.81,0,0,0,1.58.3c.69,0,.91,0,2.67,0s2,0,2.67,0a4.81,4.81,0,0,0,1.58-.3,3.14,3.14,0,0,0,1.14-.75,3,3,0,0,0,.75-1.14,4.81,4.81,0,0,0,.3-1.58c0-.69,0-.91,0-2.67s0-2,0-2.67a4.81,4.81,0,0,0-.3-1.58,3.14,3.14,0,0,0-.75-1.14A3,3,0,0,0,10.73.34,4.81,4.81,0,0,0,9.15,0C8.46,0,8.24,0,6.48,0Zm0,1.17c1.73,0,1.93,0,2.62,0a3.36,3.36,0,0,1,1.2.22,2.19,2.19,0,0,1,.75.48,2.19,2.19,0,0,1,.48.75,3.36,3.36,0,0,1,.22,1.2c0,.69,0,.89,0,2.62s0,1.93,0,2.62a3.36,3.36,0,0,1-.22,1.2,2.08,2.08,0,0,1-1.23,1.23,3.36,3.36,0,0,1-1.2.22c-.69,0-.89,0-2.62,0s-1.93,0-2.62,0a3.36,3.36,0,0,1-1.2-.22,2.19,2.19,0,0,1-.75-.48,2.19,2.19,0,0,1-.48-.75,3.36,3.36,0,0,1-.22-1.2c0-.69,0-.89,0-2.62s0-1.93,0-2.62a3.36,3.36,0,0,1,.22-1.2,2.19,2.19,0,0,1,.48-.75,2.19,2.19,0,0,1,.75-.48,3.36,3.36,0,0,1,1.2-.22C4.55,1.18,4.75,1.17,6.48,1.17Z"/></g></g></svg>