<svg xmlns="http://www.w3.org/2000/svg" viewBox="0 0 16 13"><defs><style>.cls-1{fill:#000;}</style></defs><g id="Layer_2" data-name="Layer 2"><g id="Layer_1-2" data-name="Layer 1"><path class="cls-1" d="M0,11.53A9.3,9.3,0,0,0,5,13a9.28,9.28,0,0,0,9.33-9.77A6.75,6.75,0,0,0,16,1.54a6.6,6.6,0,0,1-1.89.51A3.3,3.3,0,0,0,15.56.24a6.87,6.87,0,0,1-2.09.8A3.28,3.28,0,0,0,7.88,4,9.3,9.3,0,0,1,1.12.6,3.28,3.28,0,0,0,2.13,5,3.25,3.25,0,0,1,.64,4.57,3.29,3.29,0,0,0,3.28,7.83a3.34,3.34,0,0,1-1.48.06,3.25,3.25,0,0,0,3.06,2.27A6.55,6.55,0,0,1,0,11.52Z"/></g></g></svg>